<svg width="25" height="24" viewBox="0 0 25 24" fill="none" xmlns="http://www.w3.org/2000/svg">
<ellipse cx="12.9575" cy="12" rx="12.0415" ry="12" fill="#555A7B"/>
<path d="M19.1713 16.0275C19.1324 15.7348 18.9626 15.4824 18.7054 15.335L15.6852 13.6045C15.3153 13.3926 14.8461 13.4543 14.5441 13.7547L13.9492 14.3467C13.7909 14.5043 13.5405 14.5182 13.3668 14.3791C12.8978 14.0036 12.4361 13.5903 11.9944 13.1507C11.5527 12.7111 11.1374 12.2516 10.76 11.7849C10.6202 11.612 10.6342 11.3628 10.7926 11.2052L11.3874 10.6132C11.6893 10.3128 11.7514 9.84583 11.5384 9.47763L9.79946 6.47199C9.65139 6.21607 9.39777 6.04709 9.10359 6.00835C8.80939 5.96954 8.52032 6.06719 8.31048 6.27601L7.41412 7.16808C6.78851 7.7907 6.77847 8.92958 7.38583 10.375C7.96985 11.7648 9.05973 13.2947 10.4547 14.683C11.8496 16.0712 13.387 17.1559 14.7836 17.7371C15.4985 18.0346 16.1387 18.1833 16.6793 18.1832C17.2368 18.1832 17.6883 18.025 18.006 17.7089L18.9024 16.8168C19.1122 16.608 19.2102 16.3203 19.1713 16.0275ZM15.4873 13.9466L18.5075 15.6771C18.6569 15.7627 18.7555 15.9093 18.7781 16.0793C18.7971 16.222 18.7598 16.3625 18.6754 16.4757L14.6616 14.196L14.8246 14.0338C14.9999 13.8593 15.2725 13.8235 15.4873 13.9466ZM9.05156 6.39966C9.22244 6.42215 9.36975 6.5203 9.45573 6.66894L11.1946 9.67459C11.3184 9.88843 11.2823 10.1597 11.107 10.3341L10.9573 10.4831L8.65392 6.50188C8.74808 6.43249 8.86069 6.39481 8.97808 6.39481C9.00243 6.39481 9.027 6.39642 9.05156 6.39966ZM17.7255 17.4298C17.2285 17.9244 16.2119 17.9037 14.9366 17.3729C13.5865 16.8111 12.0944 15.7566 10.7351 14.4039C9.37583 13.0511 8.3163 11.5662 7.75174 10.2227C7.21836 8.95345 7.19755 7.94182 7.69458 7.44716L8.36001 6.78491L10.6668 10.7722L10.5121 10.9261C10.2103 11.2265 10.184 11.7021 10.451 12.0323C10.8373 12.5101 11.2622 12.9803 11.7139 13.4298C12.1657 13.8793 12.6381 14.3022 13.1181 14.6866C13.45 14.9523 13.9278 14.9262 14.2297 14.6258L14.3708 14.4853L18.3902 16.7682L17.7255 17.4298Z" fill="white"/>
</svg>
